<svg xmlns="http://www.w3.org/2000/svg"
 xmlns:xlink="http://www.w3.org/1999/xlink"
 width="62px" height="42px"  viewBox="0 0 62 42">
<path fill-rule="evenodd"  fill="$color_svg$"
 d="M53.958252,1.9998169 C53.958252,1.9998169 8.041626,1.9998169 8.041626,1.9998169 C4.711487,1.9998169 1.9999695,4.664734 1.9999695,7.937439 C1.9999695,7.937439 1.9999695,34.062622 1.9999695,34.062622 C1.9999695,37.335327 4.711487,40.000122 8.041626,40.000122 C8.041626,40.000122 53.95819,40.000122 53.95819,40.000122 C57.28827,40.000122 59.999756,37.335327 59.999756,34.062622 C59.999756,34.062622 59.999756,7.937439 59.999756,7.937439 C59.999878,4.664734 57.28839,1.9998169 53.958252,1.9998169 ZM57.583252,34.0625 C57.583252,36.02661 55.95685,37.625 53.958252,37.625 C53.958252,37.625 8.041626,37.625 8.041626,37.625 C6.04303,37.625 4.4165955,36.02661 4.4165955,34.0625 C4.4165955,34.0625 4.4165955,7.937439 4.4165955,7.937439 C4.4165955,5.9733276 6.04303,4.374878 8.041626,4.374878 C8.041626,4.374878 53.95819,4.374878 53.95819,4.374878 C55.956787,4.374878 57.58313,5.9733276 57.58313,7.937439 C57.58313,7.937439 57.58313,34.0625 57.58313,34.0625 C57.58313,34.0625 57.583252,34.0625 57.583252,34.0625 ZM58.791504,9.124817 C58.791504,9.124817 3.2084045,9.124817 3.2084045,9.124817 C2.5414124,9.124817 1.9999695,9.656982 1.9999695,10.312378 C1.9999695,10.312378 1.9999695,17.437378 1.9999695,17.437378 C1.9999695,18.093018 2.5414124,18.625 3.2084045,18.625 C3.2084045,18.625 58.791565,18.625 58.791565,18.625 C59.45868,18.625 60.0,18.093018 60.0,17.437378 C60.0,17.437378 60.0,10.312378 60.0,10.312378 C59.999878,9.656982 59.458496,9.124817 58.791504,9.124817 ZM57.583252,16.249878 C57.583252,16.249878 4.4165955,16.249878 4.4165955,16.249878 C4.4165955,16.249878 4.4165955,11.499939 4.4165955,11.499939 C4.4165955,11.499939 57.58313,11.499939 57.58313,11.499939 C57.58313,11.499939 57.58313,16.249878 57.58313,16.249878 C57.58313,16.249878 57.583252,16.249878 57.583252,16.249878 ZM24.958374,25.75 C24.958374,25.75 10.458374,25.75 10.458374,25.75 C9.791382,25.75 9.25,26.282227 9.25,26.937622 C9.25,27.593262 9.791382,28.125 10.458374,28.125 C10.458374,28.125 24.958374,28.125 24.958374,28.125 C25.625366,28.125 26.166687,27.59314 26.166687,26.9375 C26.166687,26.281982 25.625366,25.75 24.958374,25.75 ZM24.958374,30.5 C24.958374,30.5 10.458374,30.5 10.458374,30.5 C9.791382,30.5 9.25,31.03186 9.25,31.6875 C9.25,32.342896 9.791382,32.875122 10.458374,32.875122 C10.458374,32.875122 24.958374,32.875122 24.958374,32.875122 C25.625366,32.875122 26.166687,32.342896 26.166687,31.6875 C26.166626,31.03186 25.625366,30.5 24.958374,30.5 ZM49.12494,23.374878 C49.12494,23.374878 46.708313,23.374878 46.708313,23.374878 C44.709717,23.374878 43.083313,24.973267 43.083313,26.9375 C43.083313,26.9375 43.083313,29.312378 43.083313,29.312378 C43.083313,31.276611 44.709717,32.875 46.708313,32.875 C46.708313,32.875 49.12494,32.875 49.12494,32.875 C51.123535,32.875 52.749878,31.276611 52.749878,29.312378 C52.749878,29.312378 52.749878,26.9375 52.749878,26.9375 C52.749878,24.973389 51.123535,23.374878 49.12494,23.374878 ZM50.333252,29.312622 C50.333252,29.968018 49.79193,30.500122 49.12494,30.500122 C49.12494,30.500122 46.708313,30.500122 46.708313,30.500122 C46.04132,30.500122 45.49994,29.968018 45.49994,29.312622 C45.49994,29.312622 45.49994,26.937622 45.49994,26.937622 C45.49994,26.282227 46.04132,25.75 46.708313,25.75 C46.708313,25.75 49.12494,25.75 49.12494,25.75 C49.79193,25.75 50.333252,26.282227 50.333252,26.937622 C50.333252,26.937622 50.333252,29.312622 50.333252,29.312622 Z"/>
</svg>