<svg xmlns="http://www.w3.org/2000/svg"
 xmlns:xlink="http://www.w3.org/1999/xlink"
 width="57px" height="42px"  viewBox="0 0 57 42">
<path fill-rule="evenodd"  fill="$color_svg$"
 d="M45.875,14.333252 C45.875,14.333252 12.125,14.333252 12.125,14.333252 C6.5427246,14.333252 2.0,18.819946 2.0,24.333252 C2.0,24.333252 2.0,37.666626 2.0,37.666626 C2.0,39.504517 3.5142822,40.999878 5.375,40.999878 C5.375,40.999878 52.625,40.999878 52.625,40.999878 C54.48584,40.999878 56.0,39.504517 56.0,37.666626 C56.0,37.666626 56.0,24.333252 56.0,24.333252 C56.0,18.819946 51.457275,14.333252 45.875,14.333252 ZM53.75,37.666626 C53.75,38.277832 53.24597,38.77771 52.625,38.77771 C52.625,38.77771 5.375,38.77771 5.375,38.77771 C4.7540283,38.77771 4.25,38.277832 4.25,37.666626 C4.25,37.666626 4.25,24.333252 4.25,24.333252 C4.25,20.044434 7.7824707,16.555481 12.125,16.555481 C12.125,16.555481 45.875,16.555481 45.875,16.555481 C50.217407,16.555481 53.75,20.044312 53.75,24.333252 C53.75,24.333252 53.75,37.666626 53.75,37.666626 ZM12.125,14.333252 C11.504028,14.333252 11.0,14.831238 11.0,15.444458 C11.0,16.057617 11.504028,16.555481 12.125,16.555481 C16.46753,16.555481 20.0,20.044312 20.0,24.333252 C20.0,24.333252 20.0,37.666626 20.0,37.666626 C20.0,38.277832 19.495972,38.77771 18.875,38.77771 C18.254028,38.77771 17.749878,39.275635 17.749878,39.888794 C17.749878,40.502075 18.254028,41.0 18.875,41.0 C20.735718,41.0 22.25,39.504517 22.25,37.666748 C22.25,37.666748 22.25,24.333252 22.25,24.333252 C22.25,18.819946 17.707275,14.333252 12.125,14.333252 ZM41.375,1.000061 C41.375,1.000061 30.125,1.000061 30.125,1.000061 C29.504028,1.000061 29.0,1.4978638 29.0,2.111206 C29.0,2.111206 29.0,24.333252 29.0,24.333252 C29.0,24.946655 29.504028,25.444336 30.125,25.444336 C30.745972,25.444336 31.250122,24.946655 31.250122,24.333252 C31.250122,24.333252 31.250122,9.888672 31.250122,9.888672 C31.250122,9.888672 41.375122,9.888672 41.375122,9.888672 C41.996094,9.888672 42.500122,9.390991 42.500122,8.777649 C42.500122,8.777649 42.500122,2.111084 42.500122,2.111084 C42.5,1.4978638 41.99597,1.000061 41.375,1.000061 ZM40.25,7.666687 C40.25,7.666687 31.250122,7.666687 31.250122,7.666687 C31.250122,7.666687 31.250122,3.222229 31.250122,3.222229 C31.250122,3.222229 40.25,3.222229 40.25,3.222229 C40.25,3.222229 40.25,7.666687 40.25,7.666687 Z"/>
</svg>