<svg xmlns="http://www.w3.org/2000/svg"
 xmlns:xlink="http://www.w3.org/1999/xlink"
 width="62px" height="39px"  viewBox="0 0 62 39">
<path fill-rule="evenodd"  fill="$color_svg$"
 d="M55.93982,17.261597 C55.93982,17.261597 54.437744,11.366577 54.437744,11.366577 C54.84845,11.281067 55.156555,10.923523 55.156555,10.495361 C55.156555,10.495361 55.156555,9.544861 55.156555,9.544861 C55.156555,7.481018 53.445435,5.802307 51.342346,5.802307 C51.342346,5.802307 44.5011,5.802307 44.5011,5.802307 C44.5011,5.802307 44.5011,3.8414917 44.5011,3.8414917 C44.5011,2.8261108 43.65924,1.999939 42.624207,1.999939 C42.624207,1.999939 7.751465,1.999939 7.751465,1.999939 C6.7165527,1.999939 5.874695,2.8261108 5.874695,3.8414917 C5.874695,3.8414917 5.874695,20.000244 5.874695,20.000244 C5.874695,20.492188 6.28125,20.891357 6.782837,20.891357 C7.284363,20.891357 7.690979,20.49231 7.690979,20.000244 C7.690979,20.000244 7.690979,3.8414917 7.690979,3.8414917 C7.690979,3.808838 7.7180786,3.7824097 7.751465,3.7824097 C7.751465,3.7824097 42.624146,3.7824097 42.624146,3.7824097 C42.65753,3.7824097 42.68463,3.808838 42.68463,3.8414917 C42.68463,3.8414917 42.68463,20.000488 42.68463,20.000488 C42.68463,20.492432 43.091125,20.89148 43.592773,20.89148 C44.0943,20.89148 44.500916,20.492554 44.500916,20.000488 C44.500916,20.000488 44.500916,18.990234 44.500916,18.990234 C44.500916,18.990234 55.213867,18.990234 55.213867,18.990234 C55.21472,18.990234 55.215454,18.990479 55.216187,18.990479 C55.217163,18.990479 55.217896,18.990356 55.21875,18.990356 C56.536987,18.99121 57.65631,19.84021 58.040833,21.010132 C58.040833,21.010132 55.21692,21.010132 55.21692,21.010132 C54.715393,21.010132 54.308777,21.409058 54.308777,21.901245 C54.308777,21.901245 54.308777,23.802246 54.308777,23.802246 C54.308777,25.341919 55.585205,26.594238 57.154236,26.594238 C57.154236,26.594238 58.183533,26.594238 58.183533,26.594238 C58.183533,26.594238 58.183533,30.515137 58.183533,30.515137 C58.183533,30.515137 55.80896,30.515137 55.80896,30.515137 C55.02887,28.305054 52.887756,26.713013 50.373413,26.713013 C47.85919,26.713013 45.717896,28.305054 44.93799,30.515137 C44.93799,30.515137 44.500793,30.515137 44.500793,30.515137 C44.500793,30.515137 44.500793,23.802246 44.500793,23.802246 C44.500793,23.310059 44.094177,22.910889 43.59253,22.910889 C43.091064,22.910889 42.684387,23.309937 42.684387,23.802246 C42.684387,23.802246 42.684387,30.514893 42.684387,30.514893 C42.684387,30.514893 23.84259,30.514893 23.84259,30.514893 C23.0625,28.304688 20.921387,26.71289 18.407043,26.71289 C15.892822,26.71289 13.751587,28.304688 12.971619,30.514893 C12.971619,30.514893 7.751465,30.514893 7.751465,30.514893 C7.7180786,30.514893 7.690979,30.488281 7.690979,30.455444 C7.690979,30.455444 7.690979,28.494995 7.690979,28.494995 C7.690979,28.494995 11.626343,28.494995 11.626343,28.494995 C12.127808,28.494995 12.534485,28.09607 12.534485,27.604004 C12.534485,27.111694 12.127869,26.71289 11.626343,26.71289 C11.626343,26.71289 2.9082031,26.71289 2.9082031,26.71289 C2.4066772,26.71289 2.0,27.111694 2.0,27.604004 C2.0,28.09607 2.4065552,28.494995 2.9082031,28.494995 C2.9082031,28.494995 5.874756,28.494995 5.874756,28.494995 C5.874756,28.494995 5.874756,30.455444 5.874756,30.455444 C5.874756,31.470947 6.716736,32.296997 7.751648,32.296997 C7.751648,32.296997 12.657166,32.296997 12.657166,32.296997 C12.656921,32.317017 12.655579,32.336548 12.655579,32.356445 C12.655579,35.468384 15.235779,38.0 18.407043,38.0 C21.57837,38.0 24.15857,35.468384 24.15857,32.356445 C24.15857,32.336426 24.157288,32.317017 24.157043,32.296997 C24.157043,32.296997 44.623535,32.296997 44.623535,32.296997 C44.62329,32.317017 44.62195,32.336548 44.62195,32.356445 C44.62195,35.468384 47.20215,38.0 50.373413,38.0 C53.54474,38.0 56.125,35.468384 56.125,32.356445 C56.125,32.336426 56.123657,32.317017 56.123413,32.296997 C56.123413,32.296997 59.091736,32.296997 59.091736,32.296997 C59.5932,32.296997 59.999878,31.898071 59.999878,31.406006 C59.999878,31.406006 59.999878,21.901001 59.999878,21.901001 C60.00006,19.554321 58.235413,17.604614 55.93982,17.261597 ZM44.5011,7.5844116 C44.5011,7.5844116 51.342346,7.5844116 51.342346,7.5844116 C52.44403,7.5844116 53.34027,8.463745 53.34027,9.544861 C53.34027,9.544861 53.34027,9.604187 53.34027,9.604187 C53.34027,9.604187 44.5011,9.604187 44.5011,9.604187 C44.5011,9.604187 44.5011,7.5844116 44.5011,7.5844116 ZM44.5011,17.20813 C44.5011,17.20813 44.5011,11.3862915 44.5011,11.3862915 C44.5011,11.3862915 52.57074,11.3862915 52.57074,11.3862915 C52.57074,11.3862915 54.053955,17.20813 54.053955,17.20813 C54.053955,17.20813 44.5011,17.20813 44.5011,17.20813 C44.5011,17.20813 44.5011,17.20813 44.5011,17.20813 ZM18.407043,36.218018 C16.237244,36.218018 14.471802,34.485962 14.471802,32.35669 C14.471802,30.227295 16.237244,28.49524 18.407043,28.49524 C20.576965,28.49524 22.342346,30.227295 22.342346,32.35669 C22.342346,34.485962 20.576965,36.218018 18.407043,36.218018 ZM50.373657,36.218018 C48.203735,36.218018 46.438416,34.485962 46.438416,32.35669 C46.438416,30.227295 48.203735,28.49524 50.373657,28.49524 C52.54358,28.49524 54.30896,30.227295 54.30896,32.35669 C54.30896,34.485962 52.54358,36.218018 50.373657,36.218018 ZM58.183716,24.812134 C58.183716,24.812134 57.15448,24.812134 57.15448,24.812134 C56.586914,24.812134 56.125183,24.359009 56.125183,23.802246 C56.125183,23.802246 56.125183,22.792236 56.125183,22.792236 C56.125183,22.792236 58.183655,22.792236 58.183655,22.792236 C58.183655,22.792236 58.183655,24.812134 58.183655,24.812134 C58.183655,24.812134 58.183716,24.812134 58.183716,24.812134 ZM18.407043,30.515137 C17.372131,30.515137 16.530273,31.341187 16.530273,32.35669 C16.530273,33.372192 17.372131,34.198364 18.407043,34.198364 C19.442017,34.198364 20.283936,33.372192 20.283936,32.35669 C20.283936,31.341187 19.442017,30.515137 18.407043,30.515137 ZM50.373657,30.515137 C49.338745,30.515137 48.496887,31.341187 48.496887,32.35669 C48.496887,33.372192 49.338745,34.198364 50.373657,34.198364 C51.40863,34.198364 52.25055,33.372192 52.25055,32.35669 C52.25055,31.341187 51.40863,30.515137 50.373657,30.515137 ZM39.71808,26.713135 C39.71808,26.713135 26.156555,26.713135 26.156555,26.713135 C25.65509,26.713135 25.248352,27.112183 25.248352,27.604248 C25.248352,28.096313 25.654907,28.495361 26.156555,28.495361 C26.156555,28.495361 39.71808,28.495361 39.71808,28.495361 C40.219604,28.495361 40.626343,28.096313 40.626343,27.604248 C40.626343,27.112183 40.219727,26.713135 39.71808,26.713135 ZM16.469788,22.911133 C16.469788,22.911133 4.84552,22.911133 4.84552,22.911133 C4.344055,22.911133 3.937378,23.310059 3.937378,23.802246 C3.937378,24.294312 4.343872,24.69336 4.84552,24.69336 C4.84552,24.69336 16.469788,24.69336 16.469788,24.69336 C16.971252,24.69336 17.37793,24.294312 17.37793,23.802246 C17.37793,23.310059 16.971252,22.911133 16.469788,22.911133 ZM33.57953,10.81543 C33.224915,10.467468 32.64984,10.467468 32.295288,10.815674 C32.295288,10.815674 24.219238,18.73999 24.219238,18.73999 C24.219238,18.73999 20.017944,14.617554 20.017944,14.617554 C19.663269,14.269348 19.088257,14.269348 18.733643,14.617554 C18.378967,14.965454 18.378967,15.529602 18.733643,15.8776245 C18.733643,15.8776245 23.577148,20.630127 23.577148,20.630127 C23.754395,20.804443 23.986877,20.891235 24.219238,20.891235 C24.451538,20.891235 24.684143,20.804443 24.861328,20.630127 C24.861328,20.630127 33.579407,12.075745 33.579407,12.075745 C33.934082,11.7276 33.934082,11.163452 33.57953,10.81543 Z"/>
</svg>