<svg xmlns="http://www.w3.org/2000/svg"
 xmlns:xlink="http://www.w3.org/1999/xlink"
 width="58px" height="54px"  viewBox="0 0 58 54">
<path fill-rule="evenodd"  fill="$color_svg$"
 d="M24.64389,42.49646 C22.0251,42.49646 19.894592,44.628174 19.894592,47.24829 C19.894592,49.86853 22.0251,52.000122 24.64389,52.000122 C27.262604,52.000122 29.393204,49.86853 29.393204,47.24829 C29.393036,44.628174 27.262527,42.49646 24.64389,42.49646 ZM24.64389,49.34668 C23.487244,49.34668 22.546356,48.40515 22.546356,47.24817 C22.546356,46.090942 23.487411,45.149292 24.64389,45.149292 C25.800385,45.149292 26.741348,46.091064 26.741348,47.24817 C26.741348,48.405396 25.800385,49.34668 24.64389,49.34668 ZM41.302658,42.49646 C38.68387,42.49646 36.55336,44.628174 36.55336,47.24829 C36.55336,49.86853 38.68387,52.000122 41.302658,52.000122 C43.921448,52.000122 46.05197,49.86853 46.05197,47.24829 C46.05188,44.628174 43.92137,42.49646 41.302658,42.49646 ZM41.302658,49.34668 C40.146088,49.34668 39.205124,48.40515 39.205124,47.24817 C39.205124,46.090942 40.146164,45.149292 41.302658,45.149292 C42.459305,45.149292 43.400208,46.091064 43.400208,47.24817 C43.400208,48.405396 42.459152,49.34668 41.302658,49.34668 ZM42.47194,17.478333 C42.47194,17.478333 23.471207,17.478333 23.471207,17.478333 C22.738907,17.478333 22.145355,18.072205 22.145355,18.804932 C22.145355,19.537598 22.739075,20.131592 23.471207,20.131592 C23.471207,20.131592 42.47194,20.131592 42.47194,20.131592 C43.204224,20.131592 43.79785,19.537598 43.79785,18.804932 C43.79785,18.072083 43.204224,17.478333 42.47194,17.478333 ZM41.43782,24.36731 C41.43782,24.36731 24.505478,24.36731 24.505478,24.36731 C23.773193,24.36731 23.179642,24.961182 23.179642,25.69397 C23.179642,26.426514 23.773193,27.02063 24.505478,27.02063 C24.505478,27.02063 41.437653,27.02063 41.437653,27.02063 C42.169952,27.02063 42.76358,26.426514 42.76358,25.69397 C42.76358,24.961304 42.169952,24.36731 41.43782,24.36731 ZM55.405487,11.567627 C54.89978,10.946655 54.150574,10.590698 53.349884,10.590698 C53.349884,10.590698 12.049774,10.590698 12.049774,10.590698 C12.049774,10.590698 11.2157135,6.5394897 11.2157135,6.5394897 C11.04155,5.694336 10.465424,4.984741 9.674347,4.640991 C9.674347,4.640991 3.8546906,2.1136475 3.8546906,2.1136475 C3.1828156,1.8217163 2.402008,2.130066 2.1105957,2.802124 C1.8188782,3.4743042 2.127121,4.255554 2.7986755,4.547241 C2.7986755,4.547241 8.618408,7.074707 8.618408,7.074707 C8.618408,7.074707 15.033905,38.2334 15.033905,38.2334 C15.286621,39.46057 16.378876,40.351074 17.631119,40.351074 C17.631119,40.351074 49.39572,40.351074 49.39572,40.351074 C50.128082,40.351074 50.72165,39.75708 50.72165,39.024536 C50.72165,38.291748 50.128082,37.697876 49.39572,37.697876 C49.39572,37.697876 17.631271,37.697876 17.631271,37.697876 C17.631271,37.697876 16.85086,33.907837 16.85086,33.907837 C16.85086,33.907837 49.641296,33.907837 49.641296,33.907837 C50.893433,33.907837 51.98584,33.017212 52.238403,31.79004 C52.238403,31.79004 55.947174,13.77887 55.947174,13.77887 C56.108643,12.99469 55.911194,12.1883545 55.405487,11.567627 ZM49.641296,31.254639 C49.641296,31.254639 16.304626,31.254639 16.304626,31.254639 C16.304626,31.254639 12.5961,13.243652 12.5961,13.243652 C12.5961,13.243652 53.349792,13.2438965 53.349792,13.2438965 C53.349792,13.2438965 49.641296,31.254639 49.641296,31.254639 Z"/>
</svg>